<svg xmlns="http://www.w3.org/2000/svg" width="1000" height="1000" viewBox="0 0 1000 1000" version="1.1">
	<path d="M 485.717 304.750 C 485.497 305.163, 485.685 309.550, 486.136 314.500 C 487.152 325.652, 486.460 334.278, 483.768 344 C 481.380 352.626, 479.869 361.805, 479.926 367.332 C 479.948 369.440, 479.321 372.412, 478.533 373.936 C 476.224 378.401, 466.408 386.703, 459.590 389.957 C 451.004 394.055, 442.895 394.990, 420 394.524 C 384.062 393.791, 359.126 389.138, 319.500 375.770 C 301.844 369.814, 301.252 369.689, 288.500 369.255 C 272.322 368.703, 265.856 369.973, 247.270 377.350 C 231.838 383.475, 226.348 384.681, 210.500 385.428 C 204.450 385.713, 189.825 387.293, 178 388.940 C 166.175 390.586, 149.750 392.602, 141.500 393.419 C 119.542 395.593, 106.347 398.750, 94.838 404.582 C 91.042 406.506, 90 407.560, 90 409.478 C 90 411.502, 90.732 412.127, 94.250 413.108 C 99.305 414.517, 110.616 414.770, 121 413.704 L 128.500 412.935 115.500 417.708 C 108.350 420.332, 95.750 425.860, 87.500 429.990 C 75.505 435.996, 72.436 437.950, 72.181 439.748 C 71.742 442.840, 75.280 444.028, 85.394 444.187 C 91.526 444.283, 95.674 443.669, 102.426 441.666 C 107.335 440.209, 111.495 439.162, 111.671 439.338 C 111.847 439.513, 107.155 442.512, 101.245 446.002 C 80.839 458.052, 68.863 467.351, 70.447 469.914 C 71.571 471.733, 85.832 471.190, 93.503 469.034 L 100.500 467.069 98 469.120 C 83.549 480.977, 76 488.335, 76 490.563 C 76 492.805, 76.381 493, 80.770 493 C 86.356 493, 98.432 489.838, 104.352 486.826 C 106.634 485.665, 112.702 482.044, 117.838 478.779 C 122.974 475.514, 127.370 473.037, 127.607 473.274 C 127.844 473.511, 122.469 478.687, 115.661 484.777 C 103.878 495.317, 97.119 502.487, 92.065 509.808 C 90.809 511.627, 89.970 513.303, 90.200 513.533 C 91.209 514.542, 104.025 511.631, 110.575 508.904 C 119.038 505.381, 127.917 499.582, 140.989 489.042 C 146.220 484.823, 151.175 480.977, 152 480.494 C 153.818 479.430, 154.408 478.620, 141.442 495 C 117.766 524.912, 114.539 532.991, 128.247 528.035 C 131.136 526.991, 134.708 525.879, 136.183 525.566 C 137.659 525.252, 139.148 524.108, 139.492 523.024 C 139.837 521.939, 141.554 520.055, 143.309 518.836 C 145.064 517.617, 151.845 511.063, 158.378 504.272 C 164.911 497.480, 170.451 492.118, 170.688 492.355 C 170.926 492.593, 167.943 499.129, 164.060 506.880 C 160.177 514.631, 157 521.646, 157 522.468 C 157 525.414, 161.704 525.327, 168.261 522.259 C 173.332 519.886, 176.401 517.322, 183.986 509.122 L 193.410 498.934 194.737 501.467 C 195.467 502.860, 196.837 504.068, 197.782 504.151 C 201.065 504.439, 205.520 503.887, 209 502.761 C 210.925 502.138, 215.425 501.731, 219 501.857 C 222.667 501.986, 227.679 501.418, 230.500 500.553 C 236.864 498.604, 236.801 498.598, 237.180 501.150 C 237.356 502.332, 238.721 504.207, 240.213 505.317 C 242.777 507.225, 243.317 507.261, 250.083 505.984 C 255.832 504.900, 258.610 504.869, 264.208 505.829 C 273.307 507.389, 274.721 508.251, 276.005 513.017 C 276.594 515.208, 277.622 517.086, 278.289 517.190 C 278.955 517.295, 284 517.407, 289.500 517.440 C 298.117 517.492, 300.046 517.823, 303.449 519.834 C 306.568 521.677, 308.258 522.038, 311.489 521.554 C 314.122 521.159, 317.170 521.504, 320.040 522.520 C 322.493 523.389, 325.866 523.984, 327.536 523.843 C 329.206 523.702, 331.669 524.355, 333.009 525.294 C 334.349 526.232, 337.159 527, 339.255 527 C 343.567 527, 350 529.364, 350 530.949 C 350 532.618, 355.157 532.168, 357.197 530.322 C 358.952 528.734, 359.250 528.837, 362.775 532.254 L 366.500 535.865 379.500 536.321 C 388.590 536.640, 393.661 537.280, 396.361 538.448 C 399.630 539.863, 401.266 539.958, 407.034 539.063 C 411.800 538.323, 416.908 538.320, 424.047 539.053 C 434.146 540.089, 434.286 540.074, 437.928 537.550 C 439.952 536.147, 442.591 535, 443.793 535 C 447.406 535, 455.520 531.486, 462.187 527.034 L 468.466 522.841 470.639 525.366 C 473.537 528.736, 475.313 537.046, 473.919 540.713 C 472.235 545.143, 473.411 580.960, 475.365 584.739 C 477.368 588.612, 481.921 592.429, 487.459 594.879 C 489.862 595.942, 492.301 597.694, 492.878 598.772 C 495.196 603.104, 496.970 616.628, 498.022 638 C 498.632 650.375, 499.487 662.975, 499.923 666 C 500.411 669.383, 500.323 672.369, 499.694 673.759 C 498.950 675.402, 499.037 676.701, 500.017 678.531 C 501.693 681.664, 503.345 681.225, 504 677.472 L 504.501 674.609 505.750 677.352 C 506.438 678.860, 507 680.770, 507 681.597 C 507 682.423, 507.740 684.530, 508.644 686.278 L 510.287 689.456 511.212 686.978 C 511.720 685.615, 511.895 683.280, 511.601 681.789 C 511.306 680.298, 511.501 678.809, 512.033 678.480 C 512.565 678.151, 513 678.782, 513 679.882 C 513 680.982, 513.450 682.160, 514 682.500 C 514.550 682.840, 515 685.255, 515 687.868 C 515 690.480, 515.618 693.463, 516.373 694.496 C 517.713 696.328, 517.760 696.326, 518.289 694.437 C 518.588 693.372, 519.112 690.250, 519.454 687.500 C 519.796 684.750, 520.350 681.150, 520.685 679.500 L 521.294 676.500 522.406 680.420 C 523.568 684.511, 525.380 686.057, 526.277 683.720 C 527.136 681.483, 523.268 650.791, 521.643 646.952 C 520.502 644.254, 520.015 637.470, 519.613 618.659 C 519.042 591.931, 518.918 592.687, 524.393 589.500 C 527.132 587.906, 528.021 581.924, 528.929 559 C 529.622 541.469, 530.172 536.273, 531.906 530.854 C 533.684 525.295, 534.466 524.100, 536.687 523.542 C 538.147 523.176, 540.451 522.004, 541.806 520.938 C 544.435 518.870, 547.513 518.404, 548.457 519.930 C 548.773 520.442, 551.586 521.179, 554.709 521.569 C 559.272 522.139, 561.065 522.938, 563.846 525.639 C 567.022 528.723, 567.820 529, 573.531 529 C 576.955 529, 581.371 529.675, 583.346 530.500 C 590.078 533.313, 594.375 532.477, 602.128 526.846 C 603.441 525.893, 604.291 526.084, 606.513 527.832 C 610.204 530.735, 616.104 530.638, 627.493 527.488 C 633.702 525.770, 639.026 525, 644.693 525 C 650.497 525, 653.135 524.607, 653.700 523.657 C 655.031 521.423, 659.591 518.927, 664.903 517.526 C 667.669 516.796, 671.133 515.254, 672.601 514.100 C 674.227 512.820, 676.725 512, 678.994 512 C 681.272 512, 685.006 510.768, 688.609 508.829 C 694.589 505.609, 702.179 503.128, 714.101 500.494 C 717.732 499.692, 722.682 498.137, 725.101 497.040 C 727.521 495.942, 730.707 495.034, 732.183 495.022 C 734.085 495.006, 735.064 494.346, 735.548 492.750 C 736.515 489.561, 739.887 486.119, 744.225 483.895 C 747.373 482.281, 749.234 482.081, 756.225 482.609 C 764.252 483.215, 764.588 483.152, 767.422 480.505 L 770.344 477.776 780.922 478.868 C 801.421 480.984, 808.561 482.197, 814.578 484.586 C 821.973 487.522, 824.029 487.606, 824.710 485 C 824.998 483.900, 825.449 483, 825.713 483 C 825.977 483, 828.240 484.801, 830.741 487.003 C 837.287 492.765, 848.620 498.274, 851.147 496.921 C 853.733 495.538, 853.199 494.062, 845.223 480.533 C 841.645 474.465, 838.466 469.059, 838.158 468.520 C 837.416 467.222, 841.700 470.737, 853.025 480.718 C 858.154 485.238, 865.309 490.491, 868.925 492.391 C 875.615 495.906, 884.597 498.736, 885.667 497.666 C 887.264 496.069, 874.629 479.627, 858.833 462.750 C 852.785 456.288, 848.147 451, 848.527 451 C 848.907 451, 853.106 453.844, 857.859 457.321 C 862.612 460.798, 870.030 466.015, 874.344 468.915 C 892.189 480.911, 908.834 485.661, 908.985 478.801 C 909.018 477.261, 890.634 460.465, 878.054 450.542 C 870.703 444.744, 864.990 440, 865.360 440 C 865.729 440, 871.880 443.208, 879.027 447.128 C 896.832 456.894, 903.230 459.125, 915.250 459.756 C 923.619 460.195, 925 460.047, 925 458.714 C 925 456.086, 914.821 447.908, 900.544 439.064 C 887.067 430.716, 886.956 430.617, 889.714 429.440 C 892.264 428.352, 892.797 428.533, 896 431.576 C 901.830 437.115, 908.149 439.337, 918.777 439.586 C 925.837 439.751, 928.406 439.451, 929.527 438.330 C 930.337 437.520, 930.975 436.552, 930.945 436.179 C 930.728 433.525, 912.120 423.072, 890.500 413.458 C 880.872 409.176, 873.174 405.492, 873.395 405.272 C 873.615 405.052, 877.779 406.278, 882.648 407.998 C 893.889 411.969, 904.585 414.022, 913.500 413.919 C 925.508 413.782, 931.874 411.162, 929.249 407.438 C 927.727 405.279, 899.028 394.095, 884.500 389.999 C 876.250 387.673, 869.427 385.709, 869.339 385.635 C 869.250 385.561, 876.450 385.384, 885.339 385.243 C 901.030 384.993, 910.424 383.518, 913.750 380.783 C 915.842 379.063, 915.230 378.377, 909.184 375.663 C 896.462 369.954, 879.398 367.297, 847.342 366.035 C 834.485 365.529, 817.562 364.437, 809.733 363.609 C 801.905 362.781, 786.690 361.635, 775.923 361.063 C 749.617 359.666, 740.081 357.859, 720.700 350.600 C 703.676 344.224, 697.126 345.319, 668 359.410 C 620.425 382.427, 592.166 390, 553.859 390 L 538.166 390 531.333 386.394 C 522.545 381.756, 515 376.028, 515 373.995 C 515 373.118, 515.469 371.931, 516.041 371.359 C 516.763 370.637, 516.111 369.368, 513.918 367.224 C 510.895 364.269, 510.784 363.884, 511.440 358.637 C 511.952 354.540, 511.729 352.376, 510.563 350.122 C 509.703 348.459, 509 345.917, 509 344.473 C 509 341.590, 504.142 336, 501.636 336 C 499.580 336, 499.126 335.064, 497.899 328.308 C 496.524 320.742, 492.183 307.977, 490.227 305.750 C 488.634 303.937, 486.415 303.444, 485.717 304.750 M 857 358 C 857 358.550, 857.450 359, 858 359 C 858.550 359, 859 358.550, 859 358 C 859 357.450, 858.550 357, 858 357 C 857.450 357, 857 357.450, 857 358 M 827.500 359 C 827.160 359.550, 827.359 360, 827.941 360 C 828.523 360, 829 359.550, 829 359 C 829 358.450, 828.802 358, 828.559 358 C 828.316 358, 827.840 358.450, 827.500 359 M 865.813 384.683 C 866.534 384.972, 867.397 384.936, 867.729 384.604 C 868.061 384.272, 867.471 384.036, 866.417 384.079 C 865.252 384.127, 865.015 384.364, 865.813 384.683 M 864 402.415 C 865.375 403.150, 867.625 404.047, 869 404.410 C 870.879 404.905, 870.631 404.574, 868 403.076 C 866.075 401.980, 863.825 401.083, 863 401.082 C 862.168 401.081, 862.613 401.674, 864 402.415 M 499.155 596.313 C 497.961 597.752, 498.018 598.313, 501.634 620.877 C 502.989 629.335, 504.713 637.885, 505.464 639.877 C 506.216 641.870, 507.971 646.425, 509.363 650 L 511.896 656.500 511.948 651.450 C 511.977 648.672, 512.563 645.838, 513.250 645.152 C 514.890 643.513, 515.703 601.303, 514.124 599.724 C 513.546 599.146, 511.523 598.731, 509.628 598.803 C 507.553 598.881, 505.190 598.150, 503.684 596.966 C 500.724 594.637, 500.565 594.615, 499.155 596.313" stroke="none" fill="black" fill-rule="evenodd"/>
</svg>