<svg xmlns="http://www.w3.org/2000/svg" width="2610" height="1740" viewBox="0 0 2610 1740" version="1.1">
	<path d="M 441.500 158.090 C 436.802 158.894, 427.462 159.605, 410 160.489 C 401.084 160.940, 393.044 162.426, 389.251 164.324 C 387.375 165.263, 384.309 165.549, 379.608 165.224 C 372.407 164.728, 363.374 166.193, 358.846 168.593 C 357.386 169.367, 354.911 170.029, 353.346 170.064 C 348.600 170.171, 339.653 172.427, 337 174.186 C 335.625 175.098, 329.929 177.424, 324.341 179.356 C 318.754 181.288, 313.354 183.303, 312.341 183.833 C 305.246 187.546, 299.553 190, 298.030 190 C 297.048 190, 295.685 190.675, 295 191.500 C 294.315 192.325, 292.863 193, 291.772 193 C 290.681 193, 288.452 194.125, 286.818 195.500 C 285.184 196.875, 283.258 198, 282.538 198 C 281.819 198, 280.519 199.086, 279.649 200.413 C 278.779 201.740, 276.692 203.128, 275.010 203.498 C 273.328 203.867, 270.657 205.259, 269.074 206.591 C 267.377 208.019, 265.541 208.761, 264.598 208.399 C 263.486 207.973, 263 208.353, 263 209.650 C 263 211.641, 255.565 216.868, 250.750 218.261 C 249.238 218.699, 248 219.755, 248 220.608 C 248 221.899, 246.756 222.103, 240.567 221.829 C 234.039 221.540, 233.290 221.683, 234.415 223 C 237.246 226.315, 236.828 226.500, 226.492 226.500 C 216.450 226.500, 214.737 227.103, 217.836 229.546 C 218.837 230.335, 218.116 230.661, 214.962 230.847 C 212.646 230.984, 209.345 231.712, 207.626 232.466 C 204.514 233.831, 204.512 233.837, 207.125 233.918 C 208.569 233.963, 211.127 234.275, 212.810 234.612 C 216.076 235.265, 216.006 235.573, 211.561 240.048 C 209.641 241.982, 209.667 242, 214.466 242 C 219.213 242, 219.274 242.039, 217.537 243.959 C 215.370 246.353, 208.369 248.717, 201 249.543 C 197.975 249.882, 194.150 250.610, 192.500 251.160 C 190.850 251.710, 186.125 252.752, 182 253.477 C 175.047 254.699, 159.532 260.484, 156.533 262.973 C 155.817 263.567, 150.383 265.641, 144.457 267.583 C 138.531 269.524, 132.427 271.762, 130.891 272.556 C 129.356 273.350, 127.232 274, 126.172 274 C 125.112 274, 123.656 274.710, 122.936 275.577 C 121.855 276.879, 105.839 285, 104.351 285 C 104.103 285, 99.667 288.649, 94.493 293.109 C 84.657 301.589, 79.107 309.040, 74.564 319.864 C 69.844 331.113, 69.645 333.137, 72.466 341.309 C 73.860 345.347, 75 349.559, 75 350.670 C 75 352.831, 77.884 356, 79.850 356 C 81.101 356, 82.497 353.234, 83.392 348.980 C 85.015 341.272, 95.804 331.423, 108.271 326.267 C 113.286 324.193, 116.092 323.701, 122.670 323.741 C 127.164 323.769, 132.339 324.261, 134.170 324.833 C 136.002 325.406, 140.071 326.103, 143.213 326.382 C 146.355 326.662, 149.730 327.304, 150.713 327.809 C 151.696 328.314, 155.650 329.008, 159.500 329.351 C 163.350 329.695, 172.610 330.830, 180.077 331.875 C 191.836 333.520, 195.291 333.629, 205.880 332.688 C 215.780 331.808, 218.714 331.858, 221.303 332.951 C 223.061 333.693, 230.800 334.650, 238.500 335.078 C 256.559 336.081, 266.941 337.637, 269.198 339.680 C 274.180 344.188, 270.302 344.941, 239.319 345.484 C 212.293 345.957, 196.710 347.053, 188.500 349.058 C 181.894 350.672, 174.997 351.887, 165.500 353.109 C 160.550 353.746, 153.433 354.882, 149.685 355.634 C 145.936 356.385, 139.186 357.020, 134.685 357.044 C 130.183 357.068, 124.700 357.736, 122.500 358.529 C 120.300 359.321, 117.095 359.977, 115.377 359.985 C 113.660 359.993, 110.094 360.955, 107.455 362.123 C 103.624 363.818, 101.378 364.144, 96.328 363.738 C 90.029 363.233, 90 363.242, 90.004 365.865 C 90.009 369.915, 93.616 374.941, 97.772 376.689 C 99.822 377.552, 104.200 378.669, 107.500 379.171 C 110.800 379.673, 116.200 380.498, 119.500 381.004 C 122.800 381.509, 128.650 382.162, 132.500 382.454 C 136.350 382.747, 145.800 383.480, 153.500 384.084 C 161.200 384.688, 173.800 385.347, 181.500 385.549 C 189.200 385.751, 198.650 386.154, 202.500 386.444 C 206.350 386.733, 214.225 387.139, 220 387.345 C 230.420 387.716, 234.027 388.704, 242 393.368 C 245.829 395.607, 251.637 398, 253.245 398 C 254.038 398, 257.278 397.109, 260.445 396.019 C 266.958 393.778, 267.772 394.006, 273 399.541 C 279.425 406.343, 291.087 414.882, 300.528 419.696 C 305.667 422.317, 310.170 424.164, 310.534 423.799 C 311.422 422.911, 308.501 419.166, 304.095 415.546 C 302.118 413.922, 299.153 411.035, 297.507 409.131 C 293.802 404.846, 295.867 405.820, 304.997 412.663 C 308.546 415.323, 314.240 419.300, 317.652 421.500 C 321.063 423.700, 326.577 427.385, 329.906 429.689 C 333.234 431.993, 336.219 433.454, 336.539 432.936 C 336.899 432.354, 337.838 432.378, 339 433 C 341.486 434.331, 342.444 432.728, 340.929 429.771 C 340.290 428.522, 338.099 425.700, 336.060 423.500 C 334.022 421.300, 331.610 418.295, 330.701 416.821 C 329.286 414.529, 330.163 414.899, 336.774 419.378 C 341.023 422.258, 347.040 426.117, 350.144 427.954 C 353.248 429.791, 358.374 433.501, 361.536 436.199 C 370.312 443.688, 378 447.079, 378 443.460 C 378 440.567, 373.784 433.652, 368.640 428.107 C 365.813 425.060, 364.486 423.227, 365.691 424.034 C 372.680 428.710, 395.636 445.430, 402.478 450.828 C 406.890 454.309, 413.650 458.667, 417.500 460.514 C 422.592 462.957, 427.226 466.458, 434.500 473.360 C 443.900 482.279, 446.621 483.898, 444.009 479.017 C 442.086 475.423, 451.478 482.874, 462.814 493.936 C 471.808 502.712, 473.565 504, 476.545 504 C 479.362 504, 480.073 503.558, 480.594 501.482 C 480.942 500.096, 481.022 497.896, 480.773 496.591 L 480.319 494.219 484.310 497.109 C 486.504 498.699, 488.925 500, 489.690 500 C 490.454 500, 494.139 502.873, 497.878 506.386 C 501.618 509.898, 506.662 514.013, 509.089 515.531 C 513.904 518.545, 520.001 523.452, 527 529.947 C 529.475 532.244, 532.737 534.782, 534.250 535.587 C 535.763 536.392, 537 537.715, 537 538.526 C 537 539.337, 537.597 540, 538.326 540 C 539.935 540, 544 544.166, 544 545.814 C 544 546.467, 544.480 547, 545.067 547 C 545.655 547, 548.692 549.014, 551.817 551.475 C 554.943 553.937, 559.217 557.199, 561.316 558.725 C 563.415 560.251, 565.890 562.352, 566.816 563.393 C 570.169 567.161, 571.859 568.280, 576.868 570.044 C 579.671 571.031, 583.210 572.716, 584.732 573.788 C 586.254 574.861, 589.975 576.920, 593 578.364 C 601.514 582.429, 625.264 602.416, 646.634 623.500 C 661.885 638.547, 671.243 646.978, 679.026 652.682 C 686.522 658.176, 698.784 671.480, 701.380 676.937 C 702.546 679.388, 705.134 682.883, 707.130 684.705 C 709.127 686.526, 711.740 690.292, 712.936 693.072 C 714.132 695.852, 716.661 700.158, 718.555 702.640 C 720.450 705.122, 722.036 708.356, 722.079 709.827 L 722.158 712.500 723.162 709.750 C 724.740 705.430, 727.433 706.254, 729.813 711.787 C 730.946 714.420, 732.786 717.401, 733.902 718.411 C 735.914 720.232, 735.923 720.219, 734.975 716.914 C 734.367 714.792, 734.367 713.233, 734.977 712.623 C 736.067 711.533, 736.518 712.470, 739.499 722 C 741.342 727.893, 741.921 728.687, 745.693 730.507 C 747.982 731.612, 750.929 733.524, 752.242 734.757 C 755.247 737.581, 757.416 737.699, 756.710 735 C 755.974 732.183, 756.386 732.474, 759.238 736.783 C 761.741 740.565, 776.725 756, 777.894 756 C 778.622 756, 796.811 776.201, 799 779.441 C 802.050 783.955, 810.540 792.975, 811.750 792.987 C 812.438 792.994, 813 793.623, 813 794.385 C 813 795.147, 814.012 796.463, 815.250 797.309 C 819.086 799.933, 822.609 803.420, 823.297 805.273 C 823.658 806.248, 824.655 807.314, 825.511 807.643 C 828.071 808.625, 832.671 812.772, 847.541 827.500 C 855.315 835.200, 862.874 842.063, 864.338 842.750 C 867.219 844.103, 869.568 845.066, 874.992 847.121 C 878.669 848.513, 893.606 858.430, 894.170 859.853 C 894.669 861.111, 918.097 879, 919.246 879 C 919.796 879, 923.003 880.942, 926.373 883.316 C 929.743 885.690, 934.525 888.701, 937 890.007 C 939.475 891.313, 944.200 893.853, 947.500 895.650 C 950.800 897.447, 954.717 899.423, 956.204 900.041 C 961.020 902.041, 966.781 905.395, 973.963 910.381 C 980.001 914.573, 981.138 915.843, 982.017 919.381 C 982.580 921.646, 983.903 925.365, 984.956 927.644 C 986.009 929.923, 987.589 936.223, 988.466 941.644 C 990.263 952.743, 992.359 960.494, 995.258 966.759 C 996.342 969.101, 996.976 971.983, 996.668 973.163 C 996.049 975.530, 997.132 981.704, 1000.109 992.777 C 1001.485 997.893, 1001.982 1002.501, 1001.783 1008.295 C 1001.563 1014.700, 1001.925 1017.482, 1003.406 1020.777 C 1004.997 1024.318, 1005.131 1025.634, 1004.218 1028.759 C 1003.434 1031.441, 1003.427 1034.622, 1004.192 1040 C 1004.778 1044.125, 1005.367 1051.100, 1005.499 1055.500 C 1005.736 1063.379, 1007.368 1071.566, 1010.300 1079.581 C 1011.196 1082.033, 1011.593 1085.431, 1011.293 1088.092 C 1011.019 1090.528, 1011.370 1094.541, 1012.074 1097.010 C 1012.777 1099.480, 1013.266 1101.862, 1013.158 1102.305 C 1012.642 1104.436, 1010.706 1133.613, 1010.524 1142 C 1010.411 1147.225, 1010.027 1153.300, 1009.672 1155.500 C 1009.317 1157.700, 1008.562 1163.325, 1007.993 1168 C 1006.400 1181.098, 1004.997 1190.964, 1003.871 1197 C 1003.141 1200.914, 1003.167 1203.340, 1003.960 1205.412 C 1004.594 1207.069, 1004.793 1210.194, 1004.423 1212.662 C 1003.838 1216.563, 1003.976 1217, 1005.794 1217 C 1007.638 1217, 1007.806 1217.607, 1007.709 1223.908 C 1007.645 1228.101, 1008.092 1231.406, 1008.848 1232.317 C 1010.355 1234.133, 1009.374 1243.483, 1007.477 1245.380 C 1006.679 1246.178, 1006.278 1249.273, 1006.365 1253.978 L 1006.500 1261.330 1000.500 1265.641 C 991.651 1271.999, 980.851 1279.277, 978.002 1280.802 C 976.628 1281.537, 974.828 1282.689, 974.002 1283.362 C 973.176 1284.036, 971.263 1285.205, 969.750 1285.962 C 968.238 1286.719, 967 1287.710, 967 1288.164 C 967 1288.618, 964.863 1289.988, 962.250 1291.208 C 959.638 1292.429, 956.704 1294.425, 955.732 1295.645 C 954.759 1296.864, 951.188 1299.249, 947.796 1300.944 C 944.404 1302.639, 940.925 1304.631, 940.065 1305.371 C 938.671 1306.570, 931.125 1310.864, 921 1316.219 C 919.075 1317.237, 915.358 1319.394, 912.741 1321.011 C 910.124 1322.629, 905.624 1324.937, 902.741 1326.141 C 899.858 1327.345, 896.600 1329.095, 895.500 1330.030 C 891.101 1333.769, 881.944 1338.920, 878.570 1339.553 C 875.099 1340.204, 869.194 1344.089, 861.980 1350.467 C 858.827 1353.255, 857.405 1353.702, 848.310 1354.769 C 839.823 1355.765, 837.429 1356.453, 833.705 1358.966 C 831.256 1360.619, 826.608 1362.962, 823.376 1364.173 C 820.144 1365.384, 814.175 1368.540, 810.111 1371.187 C 806.048 1373.834, 801.856 1376, 800.796 1376 C 798.078 1376, 795 1377.821, 795 1379.428 C 795 1380.999, 792.850 1382, 789.475 1382 C 788.176 1382, 786.525 1382.790, 785.807 1383.755 C 785.088 1384.720, 782.700 1386.361, 780.500 1387.402 C 778.300 1388.443, 775.732 1389.670, 774.794 1390.128 C 773.855 1390.587, 771.276 1391.252, 769.063 1391.606 C 766.849 1391.960, 764.524 1392.868, 763.896 1393.625 C 763.269 1394.381, 761.980 1395, 761.033 1395 C 760.085 1395, 758.504 1395.891, 757.519 1396.979 C 756.534 1398.068, 753.324 1399.857, 750.386 1400.957 C 747.448 1402.056, 744.247 1403.391, 743.272 1403.924 C 742.297 1404.457, 739.025 1405.654, 736 1406.585 C 732.975 1407.515, 726.850 1410.014, 722.389 1412.138 C 717.927 1414.262, 713.652 1415.998, 712.889 1415.995 C 711.316 1415.989, 703.084 1418.626, 698.349 1420.652 C 696.616 1421.393, 693.916 1422.016, 692.349 1422.035 C 690.782 1422.055, 688.375 1422.714, 687 1423.500 C 685.625 1424.286, 682.960 1424.945, 681.079 1424.965 C 679.197 1424.984, 676.928 1425.660, 676.036 1426.467 C 675.144 1427.275, 671.967 1428.561, 668.977 1429.327 C 664.657 1430.432, 663.414 1431.210, 662.931 1433.109 C 662.592 1434.443, 661.715 1435.358, 660.947 1435.179 C 654.414 1433.652, 629.346 1438.857, 622.176 1443.228 C 620.348 1444.343, 616.973 1445.803, 614.676 1446.474 C 611.843 1447.301, 610.078 1448.551, 609.188 1450.362 C 608.467 1451.829, 605.629 1454.544, 602.882 1456.394 C 593.843 1462.481, 584.909 1471.960, 581.832 1478.728 C 580.274 1482.153, 579 1485.191, 579 1485.478 C 579 1487.075, 583.353 1485.567, 586.874 1482.750 C 604.906 1468.325, 610.459 1465.676, 629.373 1462.471 C 637.441 1461.105, 644.595 1459.877, 645.271 1459.743 C 646.052 1459.589, 646.612 1461.046, 646.807 1463.745 C 647.062 1467.267, 647.523 1468.093, 649.511 1468.592 C 653.039 1469.478, 673.208 1465.219, 683 1461.520 C 687.675 1459.755, 695.775 1457.277, 701 1456.014 C 706.225 1454.750, 711.697 1453.115, 713.160 1452.379 C 714.623 1451.644, 718.223 1450.126, 721.160 1449.008 L 726.500 1446.973 723.500 1449.200 C 716.913 1454.089, 706.921 1464.531, 704.967 1468.569 C 699.754 1479.336, 702.331 1498, 709.030 1498 C 711.009 1498, 712 1494.313, 712 1486.952 C 712 1480.933, 714.420 1477.852, 724.778 1470.682 C 735.746 1463.089, 736.375 1462.635, 737.821 1461.258 C 739.392 1459.763, 746.616 1459.570, 747.500 1461 C 749.274 1463.871, 765.818 1460.272, 776 1454.799 C 782.865 1451.109, 805.110 1434.846, 808.498 1431.040 C 811.858 1427.264, 815.497 1426.030, 825.848 1425.154 C 836.683 1424.238, 840.659 1422.706, 849.500 1416.039 C 852.250 1413.966, 856.975 1410.689, 860 1408.758 C 863.025 1406.826, 866.436 1404.344, 867.581 1403.241 C 871.378 1399.585, 881.071 1399.476, 922.265 1402.628 L 931.031 1403.299 935.015 1398.983 C 937.207 1396.609, 939 1394.005, 939 1393.196 C 939 1392.007, 940.009 1391.846, 944.250 1392.357 C 955.417 1393.703, 961.710 1396.835, 965.685 1403.024 C 970.795 1410.982, 970.910 1411.036, 970.924 1405.500 C 970.931 1402.633, 970.310 1399.672, 969.468 1398.559 C 968.661 1397.491, 968 1395.975, 968 1395.190 C 968 1394.404, 966.386 1391.105, 964.414 1387.858 C 959.905 1380.436, 953.818 1377.394, 941.500 1376.405 C 938.200 1376.140, 934.269 1375.438, 932.764 1374.846 C 931.205 1374.232, 928.624 1374.086, 926.764 1374.507 C 924.969 1374.913, 921.137 1375.303, 918.250 1375.373 C 914.784 1375.457, 913 1375.925, 913 1376.750 C 913 1377.438, 912.757 1378, 912.460 1378 C 911.313 1378, 906 1373.572, 906 1372.617 C 906 1371.313, 911.082 1366, 912.329 1366 C 912.855 1366, 915.655 1363.975, 918.552 1361.500 C 921.449 1359.025, 924.359 1357, 925.020 1357 C 927.140 1357, 935.809 1350.839, 936.293 1348.988 C 936.550 1348.004, 938.845 1346.278, 941.392 1345.151 C 943.939 1344.024, 946.291 1342.404, 946.619 1341.551 C 946.946 1340.698, 947.987 1340, 948.933 1340 C 949.878 1340, 951.672 1338.913, 952.921 1337.585 C 954.169 1336.256, 956.272 1334.898, 957.595 1334.566 C 958.918 1334.234, 960 1333.330, 960 1332.559 C 960 1331.787, 961.687 1330.615, 963.750 1329.954 C 965.813 1329.294, 968.400 1328.022, 969.500 1327.127 C 972.404 1324.765, 975.767 1323, 977.364 1323 C 978.129 1323, 979.291 1322.354, 979.947 1321.564 C 980.602 1320.775, 982.570 1319.818, 984.319 1319.438 C 989.437 1318.327, 1001 1312.702, 1001 1311.323 C 1001 1310.627, 1004.905 1308.219, 1009.678 1305.973 C 1014.451 1303.726, 1020.414 1300.179, 1022.928 1298.090 C 1031.150 1291.261, 1032.964 1290.987, 1037.416 1295.907 C 1038.458 1297.058, 1039.915 1298, 1040.655 1298 C 1041.473 1298, 1042 1299.138, 1042 1300.905 C 1042 1302.778, 1043.283 1305.347, 1045.611 1308.133 C 1049.984 1313.366, 1050.554 1314.779, 1051.459 1322.616 C 1051.847 1325.980, 1052.932 1330, 1053.869 1331.549 C 1055.463 1334.183, 1055.959 1334.351, 1061.536 1334.140 C 1065.917 1333.975, 1068.552 1334.457, 1071.461 1335.958 C 1073.640 1337.081, 1076.115 1337.996, 1076.961 1337.992 C 1078.485 1337.984, 1081 1333.814, 1081 1331.296 C 1081 1330.093, 1081.821 1328.303, 1087.880 1316.298 C 1089.046 1313.987, 1090 1311.631, 1090 1311.063 C 1090 1309.363, 1096.989 1296.678, 1099.279 1294.221 C 1100.447 1292.968, 1102.315 1292.068, 1103.430 1292.221 C 1104.913 1292.425, 1105.926 1291.513, 1107.201 1288.826 C 1108.160 1286.806, 1109.847 1284.520, 1110.952 1283.746 C 1113.379 1282.046, 1115.999 1276.102, 1116.004 1272.282 C 1116.008 1268.857, 1119.442 1263, 1121.445 1263 C 1123.443 1263, 1130.409 1256.044, 1132.542 1251.918 C 1134.598 1247.942, 1138.794 1244.413, 1141.016 1244.790 C 1142.119 1244.976, 1143.325 1243.285, 1144.944 1239.280 C 1146.229 1236.101, 1148.729 1231.925, 1150.500 1230 C 1153.908 1226.296, 1157.500 1218.071, 1158.521 1211.632 C 1159.235 1207.136, 1164.158 1202, 1167.754 1202 C 1169.024 1202, 1170.220 1201.438, 1170.412 1200.750 C 1170.604 1200.063, 1171.812 1194.821, 1173.096 1189.103 C 1174.643 1182.212, 1176.318 1177.481, 1178.063 1175.072 C 1180.766 1171.340, 1182.408 1165.655, 1183.571 1156 C 1183.935 1152.975, 1184.848 1147.575, 1185.599 1144 C 1186.351 1140.425, 1186.973 1135.741, 1186.983 1133.591 C 1186.997 1130.276, 1187.665 1129.060, 1191.371 1125.591 C 1195.137 1122.066, 1195.819 1120.795, 1196.305 1116.407 C 1196.615 1113.606, 1197.865 1109.402, 1199.083 1107.066 C 1200.736 1103.893, 1201.467 1100.245, 1201.966 1092.659 C 1202.973 1077.372, 1207.876 1068.244, 1211.182 1075.500 C 1212.995 1079.480, 1214 1078.428, 1214 1072.549 C 1214 1064.019, 1215.766 1057.383, 1218.516 1055.582 C 1221.006 1053.950, 1223.012 1050.233, 1225.037 1043.500 C 1225.699 1041.300, 1226.915 1037.925, 1227.741 1036 C 1230.706 1029.083, 1230.864 1004.592, 1228 995.629 C 1227.295 993.424, 1227.537 991.869, 1229.041 988.919 C 1230.119 986.807, 1231 984.323, 1231 983.399 C 1231 982.474, 1233.137 979.647, 1235.750 977.117 C 1242.406 970.669, 1243 969.139, 1243 958.431 L 1243 949.091 1246.250 948.534 C 1255.809 946.898, 1269.438 945.078, 1276.500 944.494 C 1280.900 944.130, 1290.350 942.783, 1297.500 941.502 C 1319.220 937.608, 1318.550 937.659, 1321.604 939.660 C 1325.258 942.054, 1331.943 949.181, 1331.975 950.715 C 1331.989 951.383, 1332.900 952.411, 1334 953 C 1335.100 953.589, 1336 954.582, 1336 955.208 C 1336 957.412, 1339.515 963.949, 1340.715 963.974 C 1342.458 964.011, 1343.989 967.326, 1343.365 969.713 C 1343.072 970.833, 1343.770 973.690, 1344.916 976.063 C 1346.062 978.435, 1347 981.776, 1347 983.488 C 1347 985.200, 1347.458 987.058, 1348.019 987.619 C 1348.579 988.179, 1349.902 991.659, 1350.958 995.352 C 1352.014 999.045, 1354.068 1003.480, 1355.522 1005.208 C 1357.210 1007.214, 1358.011 1009.164, 1357.736 1010.599 C 1357.433 1012.183, 1357.863 1012.993, 1359.193 1013.340 C 1360.664 1013.725, 1360.937 1014.403, 1360.432 1016.417 C 1359.957 1018.307, 1360.173 1019, 1361.237 1019 C 1364.324 1019, 1366.293 1022.706, 1365.753 1027.498 C 1365.304 1031.484, 1365.591 1032.421, 1368.077 1035.083 C 1370.270 1037.430, 1371.068 1039.477, 1371.590 1044.097 C 1372.072 1048.352, 1372.826 1050.465, 1374.207 1051.432 C 1375.458 1052.309, 1375.759 1053.031, 1375.056 1053.465 C 1374.330 1053.914, 1374.640 1054.998, 1375.982 1056.705 C 1377.092 1058.115, 1378 1060.537, 1378 1062.086 C 1378 1063.635, 1379.516 1067.962, 1381.370 1071.701 C 1385.417 1079.866, 1387.350 1085.625, 1386.502 1086.997 C 1386.159 1087.551, 1387.235 1089.916, 1388.892 1092.252 C 1390.993 1095.214, 1392.257 1098.620, 1393.066 1103.500 C 1393.876 1108.383, 1394.948 1111.272, 1396.613 1113.055 C 1397.926 1114.460, 1399 1116.362, 1399 1117.282 C 1399 1118.201, 1400.102 1119.676, 1401.449 1120.559 C 1403.928 1122.183, 1406.056 1126.958, 1406.187 1131.190 C 1406.226 1132.460, 1406.959 1135.075, 1407.815 1137 C 1408.671 1138.925, 1409.308 1142.296, 1409.229 1144.491 C 1409.144 1146.884, 1409.872 1149.812, 1411.047 1151.804 C 1412.254 1153.850, 1412.781 1156.024, 1412.419 1157.466 C 1412.049 1158.941, 1412.354 1160.120, 1413.245 1160.653 C 1414.882 1161.633, 1418 1170.674, 1418 1174.438 C 1418 1175.847, 1418.900 1177.900, 1420 1179 C 1421.129 1180.129, 1422 1182.333, 1422 1184.062 C 1422 1188.035, 1424.811 1196.598, 1426.603 1198.085 C 1427.371 1198.723, 1428 1200.670, 1428 1202.411 C 1428 1204.152, 1428.885 1207.314, 1429.968 1209.436 C 1431.050 1211.559, 1431.680 1213.709, 1431.367 1214.215 C 1430.535 1215.562, 1433.016 1228.006, 1434.813 1231.500 C 1435.810 1233.438, 1436.281 1236.703, 1436.145 1240.721 C 1435.965 1246.025, 1436.233 1247.129, 1437.967 1248.211 C 1439.085 1248.910, 1440 1250.187, 1440 1251.049 C 1440 1251.912, 1440.661 1253.491, 1441.468 1254.559 C 1442.276 1255.626, 1442.951 1257.902, 1442.968 1259.615 C 1442.986 1261.328, 1443.830 1263.803, 1444.845 1265.115 C 1445.860 1266.427, 1446.981 1268.998, 1447.336 1270.830 C 1447.691 1272.661, 1448.693 1275.659, 1449.563 1277.491 C 1451.002 1280.525, 1451.003 1281.094, 1449.567 1283.871 C 1448.091 1286.725, 1448.124 1287.177, 1450.096 1290.960 C 1451.604 1293.853, 1452.449 1298.069, 1453.071 1305.806 C 1453.549 1311.748, 1454.628 1318.259, 1455.470 1320.273 C 1456.475 1322.680, 1457 1327.160, 1457 1333.343 C 1457 1341.205, 1457.411 1343.680, 1459.501 1348.406 C 1461.857 1353.734, 1461.915 1354.268, 1460.501 1357.652 C 1458.776 1361.780, 1458.573 1365.173, 1459.966 1366.566 C 1461.632 1368.232, 1461.479 1373.620, 1459.689 1376.353 C 1458.042 1378.866, 1458.057 1379.057, 1460.063 1381.063 C 1461.326 1382.326, 1461.905 1383.804, 1461.525 1384.795 C 1460.394 1387.742, 1459.006 1401.175, 1459.591 1403.506 C 1459.905 1404.758, 1459.657 1406.094, 1459.040 1406.475 C 1458.423 1406.856, 1458.189 1408.019, 1458.519 1409.058 C 1458.848 1410.098, 1458.423 1412.422, 1457.573 1414.224 C 1456.723 1416.026, 1456.092 1419.123, 1456.170 1421.107 C 1456.249 1423.091, 1455.568 1425.779, 1454.657 1427.080 C 1453.523 1428.699, 1453 1431.517, 1453 1436.011 C 1453 1440.603, 1452.399 1443.757, 1451 1446.500 C 1449.900 1448.658, 1449 1451.199, 1449 1452.148 C 1449 1453.097, 1448.097 1457.614, 1446.992 1462.187 C 1445.888 1466.759, 1444.723 1473.875, 1444.402 1478 C 1444.081 1482.125, 1442.510 1490.345, 1440.909 1496.267 C 1439.309 1502.188, 1438 1507.932, 1438 1509.030 C 1438 1510.129, 1437.610 1511.809, 1437.134 1512.764 C 1435.647 1515.746, 1433.814 1521.432, 1433.835 1523 C 1433.867 1525.361, 1431.871 1534.087, 1430.241 1538.712 C 1429.425 1541.029, 1429.014 1543.593, 1429.327 1544.411 C 1429.641 1545.229, 1429.219 1547.259, 1428.389 1548.922 C 1427.559 1550.586, 1426.732 1554.996, 1426.551 1558.723 C 1425.935 1571.412, 1423.099 1577, 1417.277 1577 C 1416.025 1577, 1415 1577.584, 1415 1578.297 C 1415 1579.783, 1408.843 1585.811, 1404.715 1588.367 C 1398.697 1592.094, 1386.758 1597.894, 1383.744 1598.556 C 1381.996 1598.940, 1379.876 1599.625, 1379.033 1600.079 C 1377.405 1600.954, 1371.827 1603.303, 1368.500 1604.514 C 1363.404 1606.368, 1344.013 1607.680, 1333 1606.916 C 1326.675 1606.476, 1314.750 1605.636, 1306.500 1605.049 C 1298.250 1604.461, 1274.193 1603.985, 1253.040 1603.990 L 1214.581 1604 1205.040 1606.704 C 1199.793 1608.191, 1194.108 1610.329, 1192.407 1611.454 C 1190.706 1612.579, 1187.455 1614.625, 1185.184 1616 C 1182.912 1617.375, 1181.042 1619.063, 1181.027 1619.750 C 1181.012 1620.437, 1180.161 1621.839, 1179.135 1622.865 C 1177.265 1624.735, 1175.507 1636, 1177.086 1636 C 1177.499 1636, 1178.471 1636.244, 1179.247 1636.541 C 1180.216 1636.913, 1181.018 1635.883, 1181.805 1633.256 C 1183.156 1628.746, 1185.621 1625.896, 1191.232 1622.353 C 1196.910 1618.769, 1200.650 1617.853, 1206.640 1618.580 L 1211.780 1619.203 1212.953 1625.164 C 1214.601 1633.544, 1216.677 1635.362, 1223.862 1634.721 C 1226.963 1634.444, 1234.226 1633.305, 1240.002 1632.190 C 1250.148 1630.231, 1285.660 1627.326, 1286.704 1628.370 C 1286.986 1628.652, 1283.613 1630.662, 1279.209 1632.837 C 1274.805 1635.012, 1269.745 1637.851, 1267.965 1639.146 C 1263.401 1642.465, 1257 1648.878, 1257 1650.131 C 1257 1650.710, 1256.100 1652.329, 1255 1653.727 C 1253 1656.269, 1252.288 1660, 1253.803 1660 C 1255.037 1660, 1263 1653.937, 1263 1652.998 C 1263 1650.650, 1271.541 1645.642, 1277.772 1644.336 C 1285.422 1642.733, 1286.994 1643.053, 1287.015 1646.219 C 1287.050 1651.314, 1287.760 1651.517, 1304.723 1651.270 C 1323.768 1650.992, 1335.065 1649.747, 1349 1646.390 C 1354.775 1644.998, 1361.750 1643.523, 1364.500 1643.111 C 1367.250 1642.700, 1372.473 1641.151, 1376.107 1639.670 C 1384.941 1636.069, 1390.211 1634.567, 1404.748 1631.506 C 1415.329 1629.278, 1420.051 1628.877, 1439.443 1628.564 C 1465.547 1628.142, 1473.905 1629.133, 1488.071 1634.331 C 1504.267 1640.274, 1510.422 1641.306, 1532 1641.701 C 1550.152 1642.033, 1551.725 1641.918, 1554.750 1640.043 C 1561.152 1636.076, 1557.634 1629.080, 1548 1626.616 L 1542.500 1625.209 1545.500 1624.003 C 1554.802 1620.265, 1560.936 1622.422, 1568.837 1632.208 C 1577.304 1642.694, 1576.999 1642.430, 1578.691 1640.738 C 1579.993 1639.435, 1579.900 1638.625, 1577.898 1633.880 C 1574.152 1624.998, 1567.527 1616.552, 1560.214 1611.333 L 1553.531 1606.564 1540.516 1606.358 C 1522.234 1606.068, 1504.192 1604.924, 1500.570 1603.827 C 1498.882 1603.315, 1495.475 1602.516, 1493 1602.051 C 1490.525 1601.586, 1486.925 1600.642, 1485 1599.953 C 1483.075 1599.264, 1480.337 1598.294, 1478.915 1597.797 C 1475.017 1596.436, 1469.295 1588.228, 1467.536 1581.479 C 1465.801 1574.816, 1465.658 1567.935, 1467.027 1557 C 1467.543 1552.875, 1468.429 1544.550, 1468.995 1538.500 C 1470.374 1523.769, 1472.594 1512.302, 1476.098 1501.809 C 1477.694 1497.029, 1479.013 1491.179, 1479.029 1488.809 C 1479.045 1486.439, 1479.969 1481.350, 1481.083 1477.500 C 1482.196 1473.650, 1483.737 1467.454, 1484.507 1463.731 C 1485.277 1460.008, 1486.559 1454.383, 1487.356 1451.231 C 1489.027 1444.620, 1490.648 1436.075, 1492.521 1424 C 1496.906 1395.733, 1497.905 1392.169, 1502.596 1388.050 C 1507.904 1383.389, 1511.433 1383.840, 1517.449 1389.949 C 1520.772 1393.322, 1523.283 1394.993, 1525.336 1395.199 C 1527.603 1395.425, 1529.129 1396.611, 1531.501 1399.990 C 1534.240 1403.890, 1535.284 1404.585, 1539.450 1405.284 C 1542.088 1405.726, 1544.452 1405.881, 1544.705 1405.628 C 1544.957 1405.376, 1544.754 1402.462, 1544.254 1399.154 C 1543.641 1395.109, 1543.696 1392.309, 1544.422 1390.607 C 1545.497 1388.081, 1545.507 1388.086, 1548.457 1393.037 C 1550.083 1395.767, 1551.784 1398, 1552.238 1398 C 1554.004 1398, 1554.062 1395.027, 1552.359 1391.840 C 1548.787 1385.159, 1547.923 1381.404, 1547.976 1372.792 C 1548.041 1362.304, 1548.082 1362.180, 1554.078 1353.982 C 1559.874 1346.057, 1560.450 1343.999, 1559.044 1336.240 C 1558.103 1331.051, 1558.192 1329.665, 1559.666 1326.574 C 1561.302 1323.143, 1561.295 1322.496, 1559.512 1313.429 C 1557.843 1304.938, 1557.794 1303.487, 1559.069 1300.196 C 1561.233 1294.606, 1560.580 1264.670, 1558.054 1253.743 C 1557.006 1249.209, 1556.003 1241.450, 1555.824 1236.500 C 1555.401 1224.758, 1556.975 1224.528, 1562.482 1235.527 C 1564.692 1239.941, 1567.249 1244.599, 1568.165 1245.878 C 1569.811 1248.176, 1569.839 1248.135, 1570.567 1242.352 C 1570.971 1239.133, 1571.288 1235.375, 1571.269 1234 C 1571.190 1228.095, 1569.920 1213.335, 1569.333 1211.500 C 1568.982 1210.400, 1568.613 1206.350, 1568.513 1202.500 C 1568.379 1197.313, 1567.544 1193.558, 1565.289 1188 C 1563.615 1183.875, 1561.910 1178.947, 1561.499 1177.050 L 1560.753 1173.599 1563.953 1176.800 C 1565.714 1178.560, 1567.535 1180, 1568 1180 C 1568.465 1180, 1568.589 1176.513, 1568.276 1172.250 C 1567.791 1165.650, 1567.060 1163.269, 1563.351 1156.204 C 1559.049 1148.007, 1559.016 1147.869, 1560.625 1144.704 C 1561.521 1142.942, 1562.380 1141.354, 1562.534 1141.176 C 1562.688 1140.998, 1564.155 1141.546, 1565.794 1142.393 L 1568.773 1143.934 1569.719 1140.209 C 1570.734 1136.211, 1570.658 1134.490, 1569.223 1128.956 C 1568.091 1124.593, 1569.284 1121, 1571.863 1121 C 1573.604 1121, 1573.795 1120.213, 1573.844 1112.865 C 1573.874 1108.238, 1573.279 1102.955, 1572.463 1100.615 C 1571.674 1098.352, 1571.007 1095.375, 1570.979 1094 C 1570.952 1092.625, 1570.286 1090.375, 1569.500 1089 C 1568.714 1087.625, 1568.055 1085.015, 1568.035 1083.200 C 1568.016 1081.386, 1567.357 1078.657, 1566.571 1077.137 C 1565.237 1074.558, 1562.830 1059.620, 1562.842 1054 C 1562.852 1049.527, 1559.985 1020.661, 1558.917 1014.489 C 1558.346 1011.183, 1557.946 1006.008, 1558.030 1002.989 C 1558.114 999.970, 1557.856 992.993, 1557.456 987.484 C 1556.831 978.854, 1556.956 977.281, 1558.365 976.112 C 1560.316 974.493, 1560.537 968.337, 1558.790 964.297 C 1558.125 962.759, 1554.638 957.007, 1551.040 951.515 C 1544.343 941.290, 1541 934.902, 1541 932.329 C 1541 931.530, 1539.822 928.386, 1538.383 925.343 C 1536.204 920.738, 1535.953 919.399, 1536.885 917.353 C 1538.297 914.255, 1544.026 911.722, 1550.500 911.335 C 1553.250 911.171, 1558.200 910.781, 1561.500 910.468 C 1564.800 910.155, 1572.225 909.958, 1578 910.029 C 1585.365 910.119, 1589.925 909.672, 1593.273 908.532 C 1595.898 907.637, 1601.213 906.697, 1605.084 906.443 C 1608.955 906.188, 1614.781 905.084, 1618.030 903.990 C 1621.279 902.895, 1624.489 902, 1625.165 902 C 1625.840 902, 1628.057 900.846, 1630.092 899.436 C 1632.127 898.026, 1635.301 896.829, 1637.146 896.775 C 1643.965 896.578, 1669.993 897.878, 1670.939 898.463 C 1671.478 898.795, 1672.801 898.516, 1673.880 897.843 C 1675.436 896.871, 1677.151 896.893, 1682.171 897.949 C 1685.652 898.681, 1690.765 899.202, 1693.533 899.107 C 1697.220 898.980, 1700.561 899.779, 1706.033 902.094 C 1714.735 905.775, 1721.918 907.258, 1723.769 905.755 C 1724.671 905.022, 1725.569 905.205, 1726.876 906.388 C 1728.228 907.611, 1730.940 908.117, 1737.108 908.294 C 1741.723 908.428, 1746.158 908.952, 1746.963 909.459 C 1747.768 909.967, 1750.018 910.511, 1751.963 910.670 C 1756.794 911.063, 1766.068 913.114, 1768.476 914.321 C 1769.562 914.866, 1773.031 915.219, 1776.183 915.105 C 1781.963 914.897, 1784.755 915.956, 1789.559 920.179 C 1791.806 922.155, 1796.261 923.251, 1811.500 925.577 C 1817 926.417, 1824.379 927.784, 1827.897 928.614 C 1831.416 929.445, 1838.614 930.365, 1843.893 930.658 C 1849.172 930.952, 1854.168 931.509, 1854.996 931.895 C 1855.823 932.281, 1858.525 932.517, 1861 932.420 C 1868.029 932.145, 1876.257 932.010, 1879 932.126 C 1883.260 932.306, 1889.394 930.776, 1891.762 928.944 C 1893.006 927.981, 1894.872 927.415, 1895.910 927.687 C 1896.947 927.958, 1898.935 927.434, 1900.327 926.521 C 1901.719 925.609, 1904.515 924.709, 1906.540 924.521 C 1908.565 924.332, 1910.686 923.714, 1911.253 923.147 C 1912.534 921.866, 1921.311 925.018, 1924.390 927.865 C 1925.550 928.938, 1929.099 930.413, 1932.276 931.142 C 1936.130 932.026, 1939.951 933.887, 1943.756 936.733 C 1946.894 939.080, 1949.787 941, 1950.186 941 C 1951.426 941, 1958.457 946.072, 1959.300 947.574 C 1959.740 948.358, 1960.697 949, 1961.427 949 C 1962.158 949, 1963.373 949.748, 1964.128 950.663 C 1964.882 951.577, 1967.300 953.171, 1969.500 954.206 C 1971.700 955.240, 1975.300 957.199, 1977.500 958.560 C 1979.700 959.921, 1982.400 961.427, 1983.500 961.906 C 1984.600 962.386, 1986.806 963.996, 1988.403 965.483 C 1990.805 967.721, 1991.842 968.062, 1994.403 967.457 C 1996.106 967.055, 1998.536 966.741, 1999.802 966.760 C 2002.211 966.796, 2015 972.935, 2015 974.055 C 2015 974.410, 2017.250 976.100, 2020 977.809 C 2022.750 979.519, 2025 981.346, 2025 981.869 C 2025 982.393, 2027.025 983.802, 2029.500 985 C 2031.975 986.198, 2034 987.524, 2034 987.947 C 2034 988.687, 2045.222 996, 2046.357 996 C 2046.662 996, 2049.202 997.350, 2052 999 C 2054.798 1000.650, 2057.570 1002, 2058.160 1002 C 2058.750 1002, 2061.378 1003.575, 2064 1005.500 C 2066.622 1007.425, 2069.254 1009, 2069.849 1009 C 2070.443 1009, 2071.408 1009.895, 2071.994 1010.988 C 2072.579 1012.082, 2074.282 1013.265, 2075.779 1013.617 C 2079.730 1014.547, 2085.890 1018.083, 2089.078 1021.250 C 2090.600 1022.763, 2092.583 1024, 2093.483 1024 C 2094.383 1024, 2097.183 1025.575, 2099.704 1027.500 C 2102.559 1029.680, 2105.404 1031, 2107.249 1031 C 2109.913 1031, 2113.424 1033.108, 2118.084 1037.505 C 2118.955 1038.327, 2120.369 1039, 2121.227 1039 C 2122.084 1039, 2123.007 1039.577, 2123.278 1040.281 C 2123.548 1040.986, 2126.297 1042.800, 2129.385 1044.312 C 2132.474 1045.825, 2136.523 1048.398, 2138.383 1050.031 C 2140.242 1051.664, 2142.492 1053, 2143.382 1053 C 2144.272 1053, 2145 1053.441, 2145 1053.981 C 2145 1054.520, 2146.137 1055.247, 2147.526 1055.596 C 2148.916 1055.945, 2150.492 1057.051, 2151.029 1058.053 C 2151.565 1059.056, 2154.887 1061.296, 2158.410 1063.030 C 2161.932 1064.764, 2165.010 1066.931, 2165.249 1067.846 C 2165.488 1068.760, 2168.773 1071.081, 2172.549 1073.004 C 2176.324 1074.927, 2180.485 1077.737, 2181.795 1079.250 C 2183.364 1081.060, 2185.161 1082, 2187.054 1082 C 2188.841 1082, 2191.259 1083.167, 2193.438 1085.080 C 2196.676 1087.922, 2199.850 1089.796, 2212 1096.032 C 2214.475 1097.302, 2217.175 1098.703, 2218 1099.143 C 2218.825 1099.584, 2220.922 1100.664, 2222.659 1101.543 C 2224.397 1102.422, 2226.604 1104.010, 2227.564 1105.071 C 2228.524 1106.132, 2229.796 1107, 2230.389 1107 C 2231.401 1107, 2239.402 1110.624, 2245 1113.618 C 2246.375 1114.354, 2248.738 1115.459, 2250.250 1116.076 C 2251.762 1116.692, 2253 1117.875, 2253 1118.705 C 2253 1119.634, 2253.575 1119.993, 2254.498 1119.639 C 2256.201 1118.986, 2262.563 1122.420, 2263.325 1124.404 C 2263.602 1125.125, 2265.253 1126.001, 2266.995 1126.349 C 2268.737 1126.697, 2271.296 1127.875, 2272.683 1128.965 C 2274.069 1130.055, 2276.845 1131.252, 2278.851 1131.624 C 2280.858 1131.996, 2284.240 1133.783, 2286.367 1135.596 C 2290.084 1138.764, 2297.506 1142, 2301.056 1142 C 2301.990 1142, 2303.315 1142.675, 2304 1143.500 C 2304.685 1144.325, 2305.865 1145, 2306.622 1145 C 2307.380 1145, 2308.874 1145.874, 2309.943 1146.943 C 2311.011 1148.011, 2313.824 1149.403, 2316.193 1150.036 C 2318.562 1150.669, 2321.281 1151.595, 2322.236 1152.094 C 2325.061 1153.568, 2328.795 1153.134, 2330.711 1151.110 C 2334.329 1147.288, 2342.076 1142, 2344.057 1142 C 2345.179 1142, 2347.959 1142.900, 2350.236 1144 C 2352.513 1145.100, 2354.950 1146, 2355.653 1146 C 2356.355 1146, 2357.411 1146.900, 2358 1148 C 2358.589 1149.100, 2359.617 1150.004, 2360.285 1150.009 C 2360.953 1150.014, 2363.750 1151.125, 2366.500 1152.478 C 2369.250 1153.831, 2372.875 1154.952, 2374.556 1154.969 C 2377.537 1154.999, 2394.307 1161.218, 2396.704 1163.182 C 2399.335 1165.337, 2405.711 1168.083, 2409.500 1168.691 C 2414.759 1169.536, 2423.918 1173.622, 2424.613 1175.435 C 2425.129 1176.778, 2431.273 1180.072, 2442.250 1184.889 C 2444.863 1186.036, 2447 1187.387, 2447 1187.891 C 2447 1189.536, 2460.393 1195.787, 2465.510 1196.531 C 2468.255 1196.930, 2473.875 1198.939, 2478 1200.996 C 2482.125 1203.053, 2488.070 1205.741, 2491.211 1206.968 C 2494.352 1208.196, 2497.444 1209.830, 2498.083 1210.600 C 2498.722 1211.370, 2500.479 1212, 2501.988 1212 C 2503.496 1212, 2505.874 1212.900, 2507.273 1214 C 2508.671 1215.100, 2510.252 1216, 2510.785 1216 C 2511.319 1216, 2512.324 1216.685, 2513.019 1217.523 C 2513.714 1218.360, 2515.048 1218.802, 2515.984 1218.505 C 2516.920 1218.208, 2519.725 1219.105, 2522.219 1220.499 C 2524.712 1221.892, 2527.423 1222.775, 2528.244 1222.460 C 2529.064 1222.145, 2532.485 1223.219, 2535.845 1224.847 C 2543.519 1228.564, 2551.100 1229.789, 2552.913 1227.605 C 2553.612 1226.762, 2554.573 1223.018, 2555.047 1219.286 L 2555.910 1212.500 2549.523 1206.500 C 2543.657 1200.990, 2540.994 1196.437, 2542.351 1194.240 C 2542.648 1193.760, 2541.453 1192.537, 2539.696 1191.522 C 2537.938 1190.507, 2534.598 1187.950, 2532.272 1185.838 C 2529.329 1183.166, 2527.126 1182, 2525.022 1182 C 2523.360 1182, 2522 1181.587, 2522 1181.083 C 2522 1180.578, 2519.958 1179.386, 2517.463 1178.433 C 2514.967 1177.479, 2511.929 1175.518, 2510.713 1174.073 C 2509.496 1172.629, 2507.052 1170.848, 2505.283 1170.116 C 2503.514 1169.384, 2501.546 1168.158, 2500.911 1167.392 C 2500.275 1166.627, 2498.983 1166, 2498.040 1166 C 2497.097 1166, 2494.433 1164.200, 2492.121 1162 C 2489.808 1159.800, 2487.298 1158, 2486.543 1158 C 2485.787 1158, 2483.895 1156.650, 2482.338 1155 C 2480.161 1152.694, 2478.631 1152, 2475.722 1152 C 2473.030 1152, 2471.751 1151.495, 2471.292 1150.250 C 2470.460 1147.996, 2469.013 1147.034, 2466.424 1147.015 C 2464.050 1146.998, 2460 1143.114, 2460 1140.855 C 2460 1138.814, 2452.536 1133.576, 2445.899 1130.960 C 2442.932 1129.791, 2440.054 1128.469, 2439.502 1128.024 C 2438.951 1127.578, 2436.874 1126.307, 2434.887 1125.201 C 2427.655 1121.172, 2426.491 1120.491, 2426 1120 C 2424.393 1118.393, 2418.884 1114.989, 2417.790 1114.927 C 2417.081 1114.887, 2415.150 1114.001, 2413.500 1112.959 C 2411.850 1111.916, 2409.092 1110.420, 2407.372 1109.634 C 2405.652 1108.847, 2403.938 1107.708, 2403.563 1107.102 C 2403.188 1106.496, 2402.087 1106, 2401.115 1106 C 2400.144 1106, 2398.278 1104.861, 2396.970 1103.468 C 2395.662 1102.076, 2392.673 1099.978, 2390.329 1098.807 C 2387.984 1097.637, 2384.842 1095.401, 2383.346 1093.839 C 2381.850 1092.278, 2379.918 1091, 2379.053 1091 C 2378.187 1091, 2375.613 1089.188, 2373.331 1086.974 C 2371.050 1084.759, 2366.554 1081.550, 2363.341 1079.843 C 2360.129 1078.135, 2357.246 1076.342, 2356.935 1075.859 C 2356.624 1075.375, 2354.536 1073.747, 2352.295 1072.240 C 2345.104 1067.405, 2335.045 1058.547, 2334.987 1057 C 2334.921 1055.196, 2321.311 1045, 2318.970 1045 C 2318.063 1045, 2316.808 1043.875, 2316.182 1042.500 C 2315.553 1041.119, 2314.198 1040, 2313.156 1040 C 2312.119 1040, 2310.126 1039.100, 2308.727 1038 C 2307.329 1036.900, 2305.481 1036, 2304.622 1036 C 2303.763 1036, 2302.053 1034.638, 2300.822 1032.972 C 2299.590 1031.307, 2297.873 1030.065, 2297.004 1030.212 C 2295.503 1030.467, 2292.556 1028.637, 2287 1024.001 C 2285.625 1022.854, 2278.875 1018.285, 2272 1013.849 C 2265.125 1009.413, 2257.925 1004.280, 2256 1002.443 C 2254.075 1000.605, 2247.792 996.790, 2242.037 993.964 C 2236.283 991.138, 2228.408 986.689, 2224.537 984.078 C 2212.851 976.194, 2199.071 968.444, 2175.710 956.617 C 2153.624 945.436, 2132.673 932.427, 2124.025 924.524 C 2118.075 919.087, 2101.098 907.133, 2090.748 901.094 C 2086.212 898.447, 2079.480 894.424, 2075.790 892.154 C 2072.099 889.884, 2064.899 886.354, 2059.790 884.311 C 2052.945 881.573, 2049.602 879.596, 2047.086 876.798 C 2045.208 874.709, 2043.238 873, 2042.707 873 C 2042.177 873, 2040.035 871.538, 2037.948 869.750 C 2028.933 862.028, 2017.073 853.793, 2013.194 852.562 C 2012.044 852.196, 2010.841 851.074, 2010.522 850.068 C 2010.187 849.013, 2008.577 847.968, 2006.720 847.600 C 2004.949 847.249, 2001.605 845.605, 1999.289 843.947 C 1996.023 841.608, 1993.605 840.794, 1988.507 840.318 C 1984.893 839.981, 1981.699 839.321, 1981.409 838.852 C 1981.119 838.384, 1979.844 838, 1978.576 838 C 1977.307 838, 1975.197 837.164, 1973.885 836.143 C 1969.023 832.356, 1961.440 829, 1957.748 829 C 1955.218 829, 1953.418 828.343, 1952.268 827 C 1951.055 825.583, 1949.318 825, 1946.313 825 C 1943.174 825, 1941.807 824.508, 1941.057 823.107 C 1940.446 821.964, 1938.550 821.001, 1936.272 820.676 C 1928.124 819.514, 1920.461 817.857, 1919.695 817.093 C 1919.252 816.651, 1919.188 815.099, 1919.553 813.645 C 1920.120 811.386, 1920.752 811, 1923.890 811 C 1925.911 811, 1930.025 811.678, 1933.032 812.506 C 1942.698 815.168, 1954.338 817.240, 1960.500 817.395 C 1963.800 817.478, 1967.559 818.138, 1968.852 818.863 C 1970.146 819.587, 1972.017 819.967, 1973.011 819.707 C 1974.004 819.448, 1976.771 819.593, 1979.159 820.030 C 1981.771 820.509, 1983.972 820.434, 1984.686 819.843 C 1985.475 819.190, 1986.647 819.285, 1988.186 820.127 C 1989.459 820.824, 1994.550 821.518, 1999.500 821.669 C 2008.656 821.949, 2019.881 823.205, 2028 824.858 C 2030.475 825.362, 2038.800 826.085, 2046.500 826.466 C 2059.888 827.128, 2065.669 827.874, 2074.500 830.078 C 2076.700 830.627, 2083.450 831.212, 2089.500 831.379 C 2095.550 831.545, 2103.650 832.187, 2107.500 832.805 C 2111.350 833.423, 2122.375 834.399, 2132 834.974 C 2141.625 835.549, 2151.525 836.303, 2154 836.650 C 2156.475 836.997, 2160.797 837.200, 2163.605 837.103 C 2166.413 837.005, 2170.688 837.438, 2173.105 838.065 C 2175.522 838.692, 2181.372 839.359, 2186.104 839.547 C 2190.836 839.735, 2197.586 840.555, 2201.104 841.369 C 2205.397 842.363, 2210.151 842.668, 2215.562 842.295 C 2222.130 841.843, 2224.446 842.092, 2228.062 843.643 C 2231.487 845.111, 2234.441 845.487, 2241 845.289 C 2253.886 844.900, 2254.337 844.927, 2255.079 846.128 C 2255.586 846.948, 2257.461 846.954, 2262.135 846.147 C 2271.235 844.576, 2302.134 844.466, 2304.988 845.994 C 2306.843 846.986, 2308.434 846.826, 2313.920 845.095 C 2320.764 842.934, 2332.990 842.170, 2345.500 843.120 C 2348.800 843.371, 2352.071 843.159, 2352.769 842.650 C 2353.611 842.035, 2354.683 842.308, 2355.956 843.460 C 2357.011 844.415, 2358.388 844.878, 2359.016 844.490 C 2359.644 844.102, 2362.136 844.338, 2364.554 845.015 C 2368.187 846.032, 2370.211 845.976, 2376.225 844.693 C 2380.226 843.840, 2389.550 842.662, 2396.944 842.077 C 2404.338 841.491, 2410.840 840.560, 2411.394 840.006 C 2411.947 839.453, 2413.439 839, 2414.710 839 C 2415.980 839, 2417.790 838.100, 2418.732 837 C 2419.674 835.900, 2421.274 835, 2422.288 835 C 2423.302 835, 2424.889 834.595, 2425.816 834.100 C 2427.650 833.120, 2451.081 826.662, 2460.104 824.649 C 2463.425 823.908, 2467.303 822.136, 2469.622 820.299 C 2471.775 818.594, 2475.778 816.207, 2478.518 814.994 C 2481.258 813.780, 2484.850 812.104, 2486.500 811.269 C 2488.150 810.434, 2494 808.189, 2499.500 806.280 C 2520.922 798.847, 2519.739 799.630, 2518.247 793.873 C 2517.697 791.752, 2516.656 790.366, 2515.437 790.132 C 2514.372 789.928, 2512.043 788.484, 2510.263 786.923 C 2506.858 783.936, 2506.528 783.828, 2487.500 779.444 C 2480.900 777.924, 2475.302 776.516, 2475.060 776.316 C 2474.817 776.116, 2475.345 775.226, 2476.232 774.339 C 2477.271 773.300, 2477.559 772.151, 2477.040 771.113 C 2476.598 770.226, 2475.841 768.170, 2475.359 766.544 C 2473.971 761.863, 2467.423 759.872, 2450.435 758.968 C 2442.700 758.556, 2433.925 757.725, 2430.935 757.123 C 2421.382 755.196, 2415.773 754.680, 2403.867 754.630 L 2392.233 754.583 2393.277 752.291 C 2394.584 749.423, 2392.809 745, 2390.350 745 C 2389.419 745, 2387.861 744.279, 2386.887 743.398 C 2385.096 741.777, 2383.342 741.518, 2377 741.937 C 2375.075 742.064, 2371.607 741.464, 2369.292 740.604 C 2366.978 739.743, 2358.653 738.265, 2350.792 737.320 C 2342.932 736.374, 2336.350 735.240, 2336.167 734.800 C 2335.716 733.718, 2330.255 733.779, 2329.578 734.874 C 2328.748 736.217, 2314.727 736.064, 2312.974 734.693 C 2311.176 733.287, 2310.960 728, 2312.700 728 C 2313.360 728, 2314.365 728.787, 2314.932 729.750 C 2315.792 731.210, 2316.117 731.267, 2316.888 730.092 C 2317.567 729.059, 2320.322 728.660, 2327.253 728.592 C 2333.234 728.534, 2337.248 728.040, 2338.207 727.244 C 2339.039 726.553, 2343.720 725.266, 2348.610 724.383 C 2353.499 723.501, 2358.417 722.206, 2359.539 721.505 C 2360.660 720.804, 2363.810 720.222, 2366.539 720.211 C 2369.267 720.200, 2372.850 719.476, 2374.500 718.602 C 2376.150 717.728, 2378.922 717.010, 2380.661 717.006 C 2382.399 717.003, 2386.674 716.106, 2390.161 715.013 C 2393.647 713.920, 2397.947 713.020, 2399.716 713.013 C 2402.836 713, 2408.945 710.737, 2412 708.462 C 2412.825 707.848, 2415.419 706.797, 2417.765 706.128 C 2420.931 705.224, 2422.696 703.905, 2424.611 701.011 C 2427.475 696.684, 2427.061 695.196, 2421.854 691.100 C 2419.668 689.380, 2418.581 689.234, 2413.422 689.965 C 2409.010 690.590, 2406.962 690.464, 2405.391 689.471 C 2402.820 687.847, 2375.389 686.729, 2372.744 688.140 C 2371.606 688.747, 2369.573 688.653, 2366.965 687.871 C 2363.337 686.785, 2362.656 686.878, 2360.025 688.824 C 2358.278 690.115, 2356.858 690.579, 2356.487 689.980 C 2356.147 689.429, 2354.661 688.970, 2353.184 688.960 C 2351.708 688.950, 2349.375 688.885, 2348 688.814 C 2344.176 688.618, 2333.140 689.823, 2327 691.106 C 2323.975 691.738, 2318.800 692.411, 2315.500 692.600 C 2312.200 692.790, 2307.025 693.344, 2304 693.832 C 2300.975 694.321, 2292.316 694.595, 2284.759 694.441 C 2277.201 694.288, 2270.773 694.559, 2270.473 695.043 C 2270.163 695.546, 2268.876 695.523, 2267.474 694.990 C 2265.902 694.392, 2263.308 694.442, 2260.260 695.129 C 2254.663 696.390, 2253.980 696.406, 2239.063 695.619 C 2229.433 695.110, 2227.229 695.275, 2225.114 696.661 C 2221.873 698.784, 2215.297 699.160, 2183.964 699.010 C 2160.401 698.897, 2158.064 699.044, 2153.711 700.909 C 2149.705 702.627, 2148.205 702.785, 2143.747 701.962 C 2140.662 701.393, 2137.254 701.351, 2135.476 701.862 C 2133.769 702.352, 2129.698 702.354, 2126.129 701.866 C 2122.652 701.391, 2119.405 701.250, 2118.914 701.553 C 2117.848 702.212, 2106.191 700.235, 2103.873 699.002 C 2102.978 698.526, 2100.503 697.822, 2098.373 697.437 C 2096.243 697.052, 2093.640 696.291, 2092.589 695.747 C 2089.132 693.956, 2077.574 691.989, 2074.214 692.620 C 2071.971 693.040, 2070.374 692.757, 2069.210 691.730 C 2066.863 689.661, 2058.715 687.734, 2051.500 687.542 C 2048.200 687.454, 2044.517 686.846, 2043.316 686.191 C 2042.114 685.536, 2039.825 685, 2038.229 685 C 2034.270 685, 2024.518 677.923, 2023.177 674.078 C 2022.357 671.725, 2021.255 670.888, 2017.822 670.007 C 2015.445 669.396, 2008.325 667.160, 2002 665.036 C 1995.675 662.912, 1987.125 660.586, 1983 659.867 L 1975.500 658.559 1981 657.773 C 1987.745 656.809, 1991.511 655.408, 1995.759 652.283 L 1999.017 649.885 1996.259 647.650 C 1989.608 642.260, 1984.936 640.483, 1966.913 636.490 C 1960.541 635.078, 1953.763 633.085, 1951.852 632.060 C 1946.933 629.424, 1940.949 627.929, 1939.210 628.902 C 1938.308 629.407, 1935.739 628.968, 1932.616 627.775 C 1929.802 626.700, 1925.700 625.348, 1923.500 624.772 C 1921.300 624.195, 1919.072 623.336, 1918.550 622.862 C 1918.027 622.388, 1916.845 622, 1915.922 622 C 1915 622, 1913.685 621.325, 1913 620.500 C 1912.315 619.675, 1910.798 618.986, 1909.628 618.968 C 1908.457 618.951, 1906.626 618.276, 1905.559 617.468 C 1904.491 616.661, 1902.691 615.998, 1901.559 615.996 C 1900.426 615.994, 1898.150 615.170, 1896.500 614.165 C 1894.850 613.161, 1892.153 612.001, 1890.506 611.589 C 1888.859 611.177, 1886.906 610.337, 1886.167 609.724 C 1885.428 609.110, 1882.520 607.797, 1879.706 606.806 C 1876.891 605.815, 1872.975 603.428, 1871.002 601.502 C 1869.030 599.576, 1867.069 598, 1866.646 598 C 1865.550 598, 1855.319 593.107, 1850 590.039 C 1844.819 587.051, 1836.704 584.436, 1829.500 583.433 C 1826.750 583.050, 1822.904 581.934, 1820.953 580.952 C 1819.003 579.970, 1815.628 578.845, 1813.453 578.452 C 1811.279 578.059, 1808.717 577.333, 1807.760 576.839 C 1805.260 575.548, 1803.126 570.859, 1803.972 568.518 C 1804.561 566.889, 1804.048 566.294, 1801.095 565.180 C 1799.118 564.435, 1795.611 563.490, 1793.303 563.079 C 1790.995 562.669, 1788.520 561.866, 1787.803 561.295 C 1787.086 560.725, 1784.025 559.718, 1781 559.058 C 1777.975 558.398, 1774.150 557.423, 1772.500 556.891 C 1770.850 556.358, 1765.675 555.645, 1761 555.306 C 1756.325 554.967, 1750.700 553.929, 1748.500 553 C 1746.300 552.070, 1743.979 551.489, 1743.343 551.707 C 1742.707 551.926, 1739.157 550.731, 1735.455 549.052 C 1731.753 547.374, 1727.591 546, 1726.208 546 C 1722.178 546, 1711.119 539.323, 1710.399 536.455 C 1710.024 534.958, 1709.063 534, 1707.939 534 C 1706.924 534, 1704.835 533.487, 1703.297 532.859 C 1695.883 529.836, 1693.381 528.645, 1692 527.478 C 1691.175 526.781, 1687.350 525.216, 1683.500 523.999 C 1679.650 522.782, 1672 520.071, 1666.500 517.974 C 1661 515.876, 1654.275 513.896, 1651.557 513.573 C 1648.667 513.229, 1645.735 512.160, 1644.500 511 C 1643.331 509.902, 1640.226 508.719, 1637.552 508.352 C 1633.779 507.835, 1631.643 506.735, 1627.825 503.345 C 1625.135 500.955, 1621.936 498.998, 1620.717 498.996 C 1618.142 498.992, 1612 495.495, 1612 494.034 C 1612 493.486, 1610.762 492.730, 1609.250 492.355 C 1607.737 491.979, 1605.245 490.748, 1603.712 489.619 C 1601.455 487.958, 1600.569 487.788, 1599.065 488.727 C 1597.560 489.667, 1596.889 489.535, 1595.524 488.026 C 1594.519 486.916, 1591.756 485.896, 1588.670 485.498 C 1585.826 485.130, 1581.025 484.017, 1578 483.025 C 1574.975 482.032, 1568.544 479.973, 1563.709 478.449 C 1558.875 476.925, 1554.680 475.292, 1554.389 474.820 C 1553.340 473.123, 1544.006 469, 1541.214 469 C 1539.417 469, 1537.556 468.075, 1536.187 466.500 C 1534.780 464.882, 1532.965 464, 1531.042 464 C 1529.145 464, 1527.702 463.312, 1527.052 462.097 C 1525.931 460.003, 1518.403 456, 1515.585 456 C 1514.605 456, 1512.256 455.266, 1510.365 454.369 C 1508.475 453.472, 1506.644 453.023, 1506.295 453.371 C 1505.947 453.719, 1504.812 453.235, 1503.772 452.294 C 1502.733 451.353, 1500.616 450.680, 1499.069 450.798 C 1497.521 450.916, 1495.693 450.335, 1495.005 449.506 C 1494.318 448.678, 1493.116 448, 1492.335 448 C 1491.554 448, 1488.478 446.200, 1485.500 444 C 1482.522 441.800, 1479.504 439.998, 1478.793 439.996 C 1477.224 439.991, 1468.268 435.521, 1466.076 433.650 C 1464.146 432.002, 1454.511 429.569, 1441.851 427.534 C 1439.845 427.211, 1437.074 426.059, 1435.694 424.974 C 1434.314 423.888, 1432.333 423, 1431.292 423 C 1430.252 423, 1428.846 422.446, 1428.168 421.768 C 1427.490 421.090, 1423.913 419.776, 1420.218 418.848 C 1406.696 415.452, 1400.136 413.279, 1398.516 411.658 C 1397.516 410.659, 1395.197 409.986, 1392.679 409.965 C 1390.380 409.945, 1387.375 409.286, 1386 408.500 C 1384.625 407.714, 1382.565 407.055, 1381.422 407.035 C 1379.538 407.003, 1371.226 403.993, 1363.500 400.544 C 1361.850 399.807, 1357.800 398.426, 1354.500 397.475 C 1351.200 396.524, 1346.250 394.912, 1343.500 393.893 C 1340.750 392.874, 1336.025 391.410, 1333 390.639 C 1329.975 389.868, 1325.700 388.465, 1323.500 387.520 C 1321.300 386.575, 1316.800 385.173, 1313.500 384.405 C 1310.200 383.637, 1303.675 381.910, 1299 380.569 C 1294.325 379.227, 1288.475 377.590, 1286 376.931 C 1283.525 376.273, 1280.600 375.384, 1279.500 374.957 C 1278.400 374.530, 1273.450 372.943, 1268.500 371.431 C 1258.198 368.284, 1256 367.146, 1256 364.960 C 1256 363.108, 1244.715 359.507, 1232.500 357.462 C 1228.100 356.725, 1220.900 355.247, 1216.500 354.178 C 1212.100 353.108, 1205.125 351.696, 1201 351.040 C 1196.875 350.384, 1191.700 349.382, 1189.500 348.814 C 1183.879 347.362, 1165.827 344.806, 1153 343.645 C 1137.844 342.274, 1127.338 340.196, 1119.500 337.020 C 1118.400 336.574, 1114.800 335.670, 1111.500 335.011 C 1108.200 334.353, 1104.306 333.180, 1102.846 332.407 C 1101.386 331.633, 1098.888 331, 1097.296 331 C 1095.703 331, 1093.879 330.479, 1093.242 329.842 C 1092.366 328.966, 1091.711 328.995, 1090.542 329.965 C 1089.464 330.860, 1088.624 330.934, 1087.750 330.211 C 1087.063 329.642, 1085.375 329.183, 1084 329.192 C 1082.625 329.200, 1079.025 328.904, 1076 328.535 C 1072.975 328.165, 1067.265 327.895, 1063.311 327.934 C 1059.357 327.974, 1053.732 327.414, 1050.811 326.690 C 1047.890 325.966, 1042.125 325.501, 1038 325.657 C 1033.875 325.813, 1029.375 325.902, 1028 325.856 C 1026.625 325.809, 1023.700 325.809, 1021.500 325.854 C 998.799 326.325, 998.160 326.288, 994.079 324.269 C 990.813 322.653, 989.818 322.514, 988.955 323.554 C 988.197 324.468, 985.782 324.722, 980.692 324.424 C 976.736 324.193, 968.550 324.066, 962.500 324.142 C 924.962 324.615, 920.642 324.456, 910.111 322.213 C 904.397 320.996, 897.582 320, 894.968 320 C 891.835 320, 890.032 319.527, 889.681 318.612 C 889.388 317.849, 887.428 316.974, 885.324 316.669 C 871.464 314.656, 862.560 312.756, 861 311.480 C 860.175 310.805, 857.787 309.946, 855.694 309.571 C 853.601 309.196, 851.047 308.047, 850.019 307.019 C 848.991 305.991, 845.528 304.402, 842.325 303.488 C 839.121 302.574, 835.226 301.191, 833.669 300.413 C 832.112 299.636, 829.968 299, 828.905 299 C 827.843 299, 826.079 298.550, 824.986 298 C 823.894 297.450, 822.106 296.550, 821.014 296 C 819.921 295.450, 818.009 294.984, 816.764 294.965 C 815.519 294.945, 813.375 294.286, 812 293.500 C 810.625 292.714, 808.470 292.055, 807.210 292.035 C 805.951 292.016, 803.156 291.100, 801 290 C 798.844 288.900, 796.210 288, 795.147 288 C 794.084 288, 792.955 287.325, 792.638 286.500 C 792.322 285.675, 791.036 285.002, 789.781 285.004 C 788.527 285.007, 784.350 283.470, 780.500 281.590 C 776.650 279.710, 772.825 277.903, 772 277.575 C 771.175 277.246, 769.150 276.110, 767.500 275.049 C 765.850 273.988, 762.731 272.604, 760.569 271.973 C 758.407 271.342, 755.257 269.799, 753.569 268.545 C 751.881 267.291, 748.739 265.996, 746.587 265.669 C 744.435 265.341, 740.974 263.706, 738.896 262.036 C 736.818 260.366, 733.992 259, 732.618 259 C 731.243 259, 729.877 258.609, 729.581 258.132 C 729.286 257.654, 726.793 256.965, 724.040 256.600 C 720.537 256.135, 718.720 255.346, 717.983 253.968 C 717.373 252.828, 715.893 252, 714.465 252 C 713.109 252, 711.137 251.137, 710.083 250.083 C 709.029 249.029, 707.943 248.390, 707.670 248.663 C 707.397 248.936, 706.122 248.505, 704.837 247.705 C 703.552 246.905, 700.250 245.709, 697.500 245.049 C 692.092 243.749, 672.069 234.220, 668 231.009 C 666.625 229.924, 662.490 227.953, 658.810 226.629 C 655.131 225.305, 650.786 223.272, 649.156 222.111 C 647.525 220.950, 645.753 220, 645.218 220 C 644.683 220, 643.721 219.369, 643.081 218.598 C 642.442 217.827, 640.851 216.928, 639.546 216.601 C 638.242 216.274, 632.973 214.031, 627.837 211.618 C 622.702 209.205, 617.375 206.901, 616 206.497 C 614.625 206.094, 612.825 205.226, 612 204.569 C 611.175 203.913, 608.475 202.585, 606 201.620 C 603.525 200.654, 598.944 198.545, 595.821 196.932 C 592.697 195.320, 589.680 194, 589.115 194 C 588.551 194, 586.449 192.887, 584.444 191.526 C 582.439 190.166, 579.157 188.757, 577.149 188.396 C 575.142 188.035, 573.050 187.394, 572.500 186.972 C 571.138 185.927, 558.618 179.641, 552.596 176.978 C 547.322 174.646, 543.634 173.915, 535 173.488 C 528.434 173.164, 521.917 171.508, 516.671 168.832 C 514.559 167.755, 508.482 166.018, 503.166 164.972 C 497.850 163.926, 487.071 161.705, 479.213 160.035 C 464.336 156.874, 452.252 156.251, 441.500 158.090" stroke="none" fill="black" fill-rule="evenodd"/>
</svg>