<?xml version="1.0" encoding="UTF-8"?>
<svg id="Layer_1" data-name="Layer 1" xmlns="http://www.w3.org/2000/svg" viewBox="0 0 251.3 105.05">
  <defs>
    <style>
      .cls-1 {
        stroke-width: 0px;
      }
    </style>
  </defs>
  <path class="cls-1" d="m1.77,30.24c2.11-.94,9.95-7.38,15.1-10.65,2.11-4.45,13.58-8.08,13.58-8.08,0,0,.35-2.93,1.4-5.03,4.1-9.83,8.66-3.75,8.66-3.75,0,0,.35-.82,2.46-2.34,7.96-2.11,7.61,4.92,5.03,10.18l26.2,2.36c17.27,2.08,44.87-3.38,70.26,2.44s54.73,36.34,54.73,36.34c23.76,25.29,41.44,31.49,52.09,32.19-3.51.82-9.72,1.76-23.3-3.04s-47.53-31.96-47.53-32.31-1.29,12.76-.94,21.89,3.04,7.38,3.98,12.88-3.28,10.42-4.21,11.82-1.64,2.69-1.87,4.45-.94,2.58-2.69,2.46c-1.29,2.34-7.96,3.16-9.72,2.8-.12.46-5.85,0-5.85,0l3.75-2.1s.23-.47,0-1.87c-4.33,5.27-12.64,3.68-12.64,3.68,0,0-1.05.65-5.15,0,.7-1.12,6.56-1.92,6.56-1.92,0,0,4.64-1.16,8.27-8.77s-6.16-16.52-8.39-18.98-11-12.41-11-17.91c-12.29,5.39-39.87-1.93-39.87-1.93l-3.4.34s.09,1.7,0,2.89-1.96,18.21-2.38,20.68-.17,9.28-1.19,11.74-.85,7.32-2.38,9.19c0,0,1.02,1.11.77,2.72-2.64-.26-3.74-2.81-3.83-3.23s-1.19,2.04-2.72,3.66-5.53,1.79-6.89,1.19c0,0-2.55.51-6.13,0,.09-1.19,4.94-2.98,9.02-4,2.3-1.87,4.34-8.26,4.85-9.96s-.26-5.19-.68-8.17-3.06-15.23-3.06-15.23c0,0-4.17,3.4-6.72,4.85s-12.85,7.49-13.62,8.26-3.23,4-3.23,4c0,0,.17,1.53-1.62,3.91,0,0,.09,1.02-1.45,2.47-.6-.68-.77-1.79-.51-4.6,0,0-7.66,5.96-9.36,6.38,0,0-3.06,3.66-3.91,2.72-.68-4.09,10.04-11.74,11.32-14.04s5.45-8.68,7.91-10.38c10.81-8.85,12.68-11.57,13.19-15.91,0,0-3.66-2.98-6.13-6.89,0,0-6.38-5.11-7.83-8.51-3.74-.77-15.15-6.3-21.45-9.7,0,0-7.32,3.83-9.62,4.17,0,0-16.68,4.6-18.72,5.02s-5.87.09-6.55-1.96c-4.69-.6-5.64-5.14-2.57-6.43Zm170.09,54.66c-.38,2.76-3.84,4.91-4.3,8.51s-2.53,6.67-3.22,6.83c-.08,1.53,0,2.3,0,2.3,0,0,5.06-1.99,6.44-3.76s4.76-6.14,1.07-13.88Z"/>
</svg>